HIERARCHY
ROOT Hips
{
	OFFSET 0.00000 0.00000 0.00000
	CHANNELS 6 Xposition Yposition Zposition Zrotation Yrotation Xrotation 
	JOINT LHipJoint
	{
		OFFSET 0 0 0
		CHANNELS 3 Zrotation Yrotation Xrotation
		JOINT LeftUpLeg
		{
			OFFSET 1.84395 -1.68683 0.74144
			CHANNELS 3 Zrotation Yrotation Xrotation
			JOINT LeftLeg
			{
				OFFSET 2.27037 -6.23779 0.00000
				CHANNELS 3 Zrotation Yrotation Xrotation
				JOINT LeftFoot
				{
					OFFSET 2.56918 -7.05877 0.00000
					CHANNELS 3 Zrotation Yrotation Xrotation
					JOINT LeftToeBase
					{
						OFFSET 0.22276 -0.61202 1.71784
						CHANNELS 3 Zrotation Yrotation Xrotation
						End Site
						{
							OFFSET 0.00000 -0.00000 0.91613
						}
					}
				}
			}
		}
	}
	JOINT RHipJoint
	{
		OFFSET 0 0 0
		CHANNELS 3 Zrotation Yrotation Xrotation
		JOINT RightUpLeg
		{
			OFFSET -1.76833 -1.68684 0.74144
			CHANNELS 3 Zrotation Yrotation Xrotation
			JOINT RightLeg
			{
				OFFSET -2.49360 -6.85110 0.00000
				CHANNELS 3 Zrotation Yrotation Xrotation
				JOINT RightFoot
				{
					OFFSET -2.55538 -7.02085 0.00000
					CHANNELS 3 Zrotation Yrotation Xrotation
					JOINT RightToeBase
					{
						OFFSET -0.21516 -0.59115 1.68050
						CHANNELS 3 Zrotation Yrotation Xrotation
						End Site
						{
							OFFSET -0.00000 -0.00000 0.89604
						}
					}
				}
			}
		}
	}
	JOINT LowerBack
	{
		OFFSET 0 0 0
		CHANNELS 3 Zrotation Yrotation Xrotation
		JOINT Spine
		{
			OFFSET 0.06382 1.72312 -0.19613
			CHANNELS 3 Zrotation Yrotation Xrotation
			JOINT Spine1
			{
				OFFSET -0.00055 1.73507 0.23859
				CHANNELS 3 Zrotation Yrotation Xrotation
				JOINT Neck
				{
					OFFSET 0 0 0
					CHANNELS 3 Zrotation Yrotation Xrotation
					JOINT Neck1
					{
						OFFSET 0.03638 1.65562 0.09633
						CHANNELS 3 Zrotation Yrotation Xrotation
						JOINT Head
						{
							OFFSET 0.06388 1.62807 -0.32386
							CHANNELS 3 Zrotation Yrotation Xrotation
							End Site
							{
								OFFSET 0.00995 1.67644 -0.12021
							}
						}
					}
				}
				JOINT LeftShoulder
				{
					OFFSET 0 0 0
					CHANNELS 3 Zrotation Yrotation Xrotation
					JOINT LeftArm
					{
						OFFSET 3.09648 1.42991 0.28122
						CHANNELS 3 Zrotation Yrotation Xrotation
						JOINT LeftForeArm
						{
							OFFSET 5.11878 -0.00000 -0.00000
							CHANNELS 3 Zrotation Yrotation Xrotation
							JOINT LeftHand
							{
								OFFSET 3.59971 -0.00000 0.00000
								CHANNELS 3 Zrotation Yrotation Xrotation
								JOINT LeftFingerBase
								{
									OFFSET 0 0 0
									CHANNELS 3 Zrotation Yrotation Xrotation
									JOINT LeftHandIndex1
									{
										OFFSET 0.62877 -0.00000 0.00000
										CHANNELS 3 Zrotation Yrotation Xrotation
										End Site
										{
											OFFSET 0.50693 -0.00000 0.00000
										}
									}
								}
								JOINT LThumb
								{
									OFFSET 0 0 0
									CHANNELS 3 Zrotation Yrotation Xrotation
									End Site
									{
										OFFSET 0.51467 -0.00000 0.51467
									}
								}
							}
						}
					}
				}
				JOINT RightShoulder
				{
					OFFSET 0 0 0
					CHANNELS 3 Zrotation Yrotation Xrotation
					JOINT RightArm
					{
						OFFSET -3.33565 1.14597 0.05047
						CHANNELS 3 Zrotation Yrotation Xrotation
						JOINT RightForeArm
						{
							OFFSET -5.49020 -0.00000 0.00000
							CHANNELS 3 Zrotation Yrotation Xrotation
							JOINT RightHand
							{
								OFFSET -3.20659 -0.00000 -0.00000
								CHANNELS 3 Zrotation Yrotation Xrotation
								JOINT RightFingerBase
								{
									OFFSET 0 0 0
									CHANNELS 3 Zrotation Yrotation Xrotation
									JOINT RightHandIndex1
									{
										OFFSET -0.69188 -0.00000 0.00000
										CHANNELS 3 Zrotation Yrotation Xrotation
										End Site
										{
											OFFSET -0.55781 -0.00000 0.00000
										}
									}
								}
								JOINT RThumb
								{
									OFFSET 0 0 0
									CHANNELS 3 Zrotation Yrotation Xrotation
									End Site
									{
										OFFSET -0.56633 -0.00000 0.56633
									}
								}
							}
						}
					}
				}
			}
		}
	}
}
MOTION
Frames: 8
Frame Time: .0083333
0.0415 17.4592 8.6738 0 0 0 0 0 0 -21 0 0 0 0 0 0 0 0 0 0 0 0 0 0 21 0 0 0 0 0 0 0 0 0 0 0 0 0 0 0 0 0 0 0 0 0 0 -16 0 0 21 0 0 11 0 0 0 -8 0 0 0 0 0 0 0 0 0 0 0 0 0 0 0 0 0 0 0 0 8 0 0 0 0 0 0 0 0 0 0 0 0 0 0 0 0 0
0.0415 17.4592 8.6738 -8.9979 -4.5208 11.8817 0.0000 0.0000 0.0000 -25.8515 -47.6222 32.7702 0.0526 -1.4797 -4.0698 4.3420 43.3605 -67.5388 2.1648 9.2013 26.4270 0.0000 0.0000 0.0000 25.0737 20.7667 1.1829 -0.0200 -0.9141 2.5125 0.6181 -17.2217 -17.4586 -0.0064 0.5166 -1.4195 5.3969 0.0436 -0.4393 2.4715 0.5347 -10.0980 -0.4057 -0.0897 -10.4984 -11.4624 -12.4659 -3.8540 10.4185 -18.9063 23.5408 3.3321 -8.9879 10.2399 -0.0000 0.0000 0.0000 -93.9530 10.7156 -16.4157 9.5027 -15.9580 -1.3350 -0.0000 -0.0000 36.2707 16.1948 -13.0778 -3.7599 -7.1250 0.0000 -0.0000 -7.6694 16.4596 5.2296 -0.0000 0.0000 0.0000 92.9594 -10.1245 -1.8019 -15.9821 25.4964 -3.6382 0.0000 0.0000 31.0385 4.5720 -34.6811 -2.6053 7.1250 -0.0000 -0.0000 42.5099 -59.3173 -16.6983
0.0425 17.4600 8.6709 -9.0590 -4.5227 11.9082 0.0000 0.0000 0.0000 -25.7958 -47.6932 32.7901 0.0524 -1.4779 -4.0647 4.4574 43.2803 -67.6710 2.2087 9.2878 26.6999 0.0000 0.0000 0.0000 25.1294 20.8204 1.1370 -0.0205 -0.9240 2.5398 0.6181 -17.2211 -17.4574 -0.0065 0.5202 -1.4294 5.5076 0.0655 -0.4075 2.4648 0.5742 -10.1328 -0.4768 -0.0822 -10.5568 -11.4328 -12.5775 -4.1924 10.1313 -19.0268 23.9796 3.1826 -9.0415 10.4456 0.0000 -0.0000 0.0000 -93.9263 10.8150 -16.0574 9.5283 -15.9984 -1.3420 -0.0000 -0.0000 36.0437 16.2066 -13.1083 -3.7713 -7.1250 0.0000 -0.0000 -7.6615 16.4274 5.2295 0.0000 -0.0000 0.0000 92.9629 -10.3063 -1.2261 -16.0894 25.6417 -3.6846 0.0000 0.0000 31.0819 4.2619 -34.2586 -2.4022 7.1250 -0.0000 -0.0000 41.7658 -59.0695 -16.0833
0.0429 17.4603 8.6708 -9.0127 -4.5214 11.8730 0.0000 0.0000 0.0000 -25.8686 -47.6561 32.7999 0.0523 -1.4758 -4.0590 4.3306 43.3884 -67.5427 2.1785 9.2285 26.5126 0.0000 0.0000 0.0000 25.3530 21.8812 2.0715 -0.0125 -0.7208 1.9808 0.7603 -18.3914 -17.9170 -0.0012 0.2237 -0.6147 5.4993 0.0623 -0.3854 2.4341 0.5691 -10.1428 -0.5045 -0.0862 -10.5813 -11.4153 -12.6006 -4.2502 10.0622 -19.0576 24.1083 3.1462 -9.0553 10.4985 -0.0000 0.0000 0.0000 -93.9111 10.8958 -15.7832 9.5556 -16.0415 -1.3495 -0.0000 -0.0000 35.8122 16.2551 -13.1694 -3.8005 -7.1250 0.0000 -0.0000 -7.6284 16.3607 5.2177 -0.0000 0.0000 0.0000 92.9868 -10.4898 -0.6878 -16.2032 25.7953 -3.7339 0.0000 0.0000 31.2269 3.7340 -33.6218 -2.0696 7.1250 -0.0000 -0.0000 40.6050 -58.7024 -15.1685
0.0419 17.4612 8.6720 -8.9215 -4.5100 11.7775 0.0000 0.0000 0.0000 -26.0507 -47.5713 32.8928 0.0523 -1.4756 -4.0586 4.1104 43.5679 -67.3151 2.1123 9.0961 26.0964 0.0000 0.0000 0.0000 26.3477 25.6438 5.2619 -0.0005 -0.1417 0.3893 1.3161 -22.4110 -19.8464 -0.0136 -0.7528 2.0688 5.4058 0.0366 -0.3866 2.4174 0.5256 -10.0987 -0.4677 -0.0986 -10.5308 -11.4365 -12.6310 -4.4316 10.0172 -19.0976 24.2946 3.1126 -9.0669 10.6044 -0.0000 0.0000 0.0000 -93.9340 10.9491 -15.5488 9.5930 -16.1005 -1.3599 -0.0000 -0.0000 35.5977 16.2940 -13.2912 -3.8446 -7.1250 0.0000 -0.0000 -7.6025 16.2325 5.2209 -0.0000 0.0000 0.0000 93.0072 -10.6391 -0.1400 -16.3529 25.9968 -3.7993 0.0000 0.0000 31.5792 2.8811 -32.8251 -1.5627 7.1250 -0.0000 -0.0000 39.0017 -58.2733 -14.0286
0.0374 17.4662 8.6791 -8.7300 -4.4823 11.8631 0.0000 0.0000 0.0000 -26.2517 -47.7180 32.8591 0.0514 -1.4630 -4.0237 4.0611 43.6826 -67.3290 2.0884 9.0478 25.9450 0.0000 0.0000 0.0000 26.1310 25.7547 5.2896 -0.0003 -0.1047 0.2877 1.3414 -22.5628 -19.8989 -0.0234 -0.9870 2.7131 5.1372 -0.0024 -0.7157 2.4133 0.4314 -10.0667 -0.3173 -0.1167 -10.2970 -11.4799 -12.7756 -5.0933 9.7335 -19.2489 24.8908 2.9421 -9.1217 10.9461 -0.0000 0.0000 0.0000 -93.9796 11.0987 -14.4681 9.7044 -16.2758 -1.3909 -0.0000 -0.0000 34.4844 16.3494 -12.8193 -3.7241 -7.1250 0.0000 -0.0000 -7.5613 16.7130 5.1126 -0.0000 0.0000 0.0000 92.9177 -10.6745 0.4584 -16.3332 25.9704 -3.7907 0.0000 0.0000 31.9962 1.6673 -31.7380 -0.8772 7.1250 -0.0000 -0.0000 36.8166 -57.6737 -12.5424
0.0318 17.4750 8.6906 -8.4444 -4.5042 12.1848 0.0000 0.0000 0.0000 -26.3683 -48.0753 32.5497 0.0493 -1.4328 -3.9406 4.1078 43.8134 -67.5221 2.0847 9.0404 25.9218 0.0000 0.0000 0.0000 25.6888 26.0750 5.0980 -0.0001 -0.0552 0.1517 1.3914 -22.8301 -19.9247 -0.0489 -1.4268 3.9240 4.7389 -0.0091 -1.3578 2.3824 0.3548 -10.0844 -0.1261 -0.1158 -9.9302 -11.3594 -12.7397 -4.9373 9.7007 -19.1870 24.6858 2.9375 -9.0982 10.8138 0.0000 -0.0000 0.0000 -93.9743 11.3640 -12.3915 9.8988 -16.5812 -1.4459 -0.0000 -0.0000 32.3497 16.4412 -11.8763 -3.4753 -7.1250 0.0000 -0.0000 -7.4954 17.6760 4.9080 0.0000 -0.0000 0.0000 92.7860 -10.6398 1.0790 -16.0337 25.5663 -3.6605 0.0000 0.0000 33.0791 -0.2599 -29.9613 0.1298 7.1250 -0.0000 -0.0000 33.4214 -56.6224 -10.3176
0.0291 17.4797 8.6944 -8.2541 -4.5692 12.3309 0.0000 0.0000 0.0000 -26.4961 -48.2418 32.4029 0.0481 -1.4156 -3.8931 4.1162 43.9237 -67.6315 2.0782 9.0270 25.8799 0.0000 0.0000 0.0000 25.4002 26.2457 4.9870 -0.0000 -0.0375 0.1031 1.4119 -22.9371 -19.9320 -0.0618 -1.6037 4.4115 4.4936 0.0089 -1.6373 2.3410 0.3470 -10.0962 -0.0348 -0.0987 -9.7738 -11.3736 -12.7482 -4.8917 9.7336 -19.2105 24.6822 2.9504 -9.1091 10.8121 -0.0000 0.0000 0.0000 -93.9417 11.5845 -10.9026 10.0599 -16.8332 -1.4922 -0.0000 -0.0000 30.8739 16.5419 -11.4130 -3.3635 -7.1250 0.0000 -0.0000 -7.4254 18.1458 4.7840 -0.0000 0.0000 0.0000 92.7341 -10.6489 1.6826 -16.1436 25.7150 -3.7081 0.0000 0.0000 32.4965 -0.4447 -29.5567 0.2194 7.1250 -0.0000 -0.0000 32.9105 -56.3216 -9.8857
